<?xml version="1.0" encoding="UTF-8" standalone="no"?>
<!-- Created with Inkscape (http://www.inkscape.org/) -->

<svg
   width="135.46666mm"
   height="135.46666mm"
   viewBox="0 0 135.46666 135.46666"
   version="1.1"
   id="svg142139"
   xml:space="preserve"
   inkscape:version="1.2.2 (732a01da63, 2022-12-09)"
   sodipodi:docname="icon.svg"
   xmlns:inkscape="http://www.inkscape.org/namespaces/inkscape"
   xmlns:sodipodi="http://sodipodi.sourceforge.net/DTD/sodipodi-0.dtd"
   xmlns="http://www.w3.org/2000/svg"
   xmlns:svg="http://www.w3.org/2000/svg"><sodipodi:namedview
     id="namedview142141"
     pagecolor="#ffffff"
     bordercolor="#000000"
     borderopacity="0.25"
     inkscape:showpageshadow="2"
     inkscape:pageopacity="0.0"
     inkscape:pagecheckerboard="0"
     inkscape:deskcolor="#d1d1d1"
     inkscape:document-units="mm"
     showgrid="false"
     inkscape:zoom="0.54299809"
     inkscape:cx="294.66034"
     inkscape:cy="434.624"
     inkscape:window-width="1920"
     inkscape:window-height="1017"
     inkscape:window-x="-8"
     inkscape:window-y="1072"
     inkscape:window-maximized="1"
     inkscape:current-layer="layer1" /><defs
     id="defs142136" /><g
     inkscape:label="Layer 1"
     inkscape:groupmode="layer"
     id="layer1"
     transform="translate(85.103241,-95.784233)"><circle
       style="opacity:1;fill:#e4e7fd;fill-opacity:1;stroke-width:0.610382;stroke-linejoin:round;stop-color:#000000"
       id="path142324"
       cx="-17.369911"
       cy="163.51756"
       r="67.73333" /><g
       id="g30146"
       style="font-size:82.6667px;font-family:Verdana;-inkscape-font-specification:'Verdana, Normal';fill:#5566ea;stroke-width:1.33333;stroke-linejoin:round;fill-opacity:1"
       transform="matrix(0.80059064,0,0,0.80059064,-59.661257,52.916402)"><path
         d="m 26.728676,112.93024 v 55.09768 H 10.340648 v -55.09768 z"
         style="font-family:'Bauhaus 93';-inkscape-font-specification:'Bauhaus 93, Normal';fill:#5566ea;fill-opacity:1"
         id="path26799" /><path
         d="m 36.618004,168.02792 v -39.71876 q 0,-7.38673 4.48047,-12.06902 4.480471,-4.68229 11.625005,-4.68229 8.476567,0 13.037766,7.79037 2.785158,-4.19792 5.973961,-5.97397 3.188804,-1.8164 7.871097,-1.8164 7.427087,0 11.382818,4.68229 3.955731,4.68229 3.955731,13.48178 v 38.306 H 78.556824 v -35.84376 q 0,-2.66407 -0.444011,-3.51172 -0.403646,-0.88802 -1.695313,-0.88802 -2.421876,0 -2.421876,4.11719 v 36.12631 H 57.607596 v -35.84376 q 0,-2.6237 -0.444011,-3.51172 -0.44401,-0.88802 -1.735677,-0.88802 -2.421876,0 -2.421876,4.39974 v 35.84376 z"
         style="font-family:'Bauhaus 93';-inkscape-font-specification:'Bauhaus 93, Normal';fill:#5566ea;fill-opacity:1"
         id="path26801" /></g></g></svg>
