<svg width="100" height="100" viewBox="0 0 100 100" fill="none" xmlns="http://www.w3.org/2000/svg">
<path d="M66.6667 50C66.6667 45.3993 65.0391 41.4714 61.7839 38.2161C58.5286 34.9609 54.6007 33.3333 50 33.3333C45.3993 33.3333 41.4714 34.9609 38.2161 38.2161C34.9609 41.4714 33.3333 45.3993 33.3333 50C33.3333 54.6007 34.9609 58.5286 38.2161 61.7839C41.4714 65.0391 45.3993 66.6667 50 66.6667C54.6007 66.6667 58.5286 65.0391 61.7839 61.7839C65.0391 58.5286 66.6667 54.6007 66.6667 50ZM75.651 50C75.651 57.1181 73.1554 63.1727 68.1641 68.1641C63.1727 73.1554 57.1181 75.651 50 75.651C42.8819 75.651 36.8273 73.1554 31.8359 68.1641C26.8446 63.1727 24.349 57.1181 24.349 50C24.349 42.8819 26.8446 36.8273 31.8359 31.8359C36.8273 26.8446 42.8819 24.349 50 24.349C57.1181 24.349 63.1727 26.8446 68.1641 31.8359C73.1554 36.8273 75.651 42.8819 75.651 50ZM82.6823 23.3073C82.6823 24.9566 82.0964 26.3672 80.9245 27.5391C79.7526 28.7109 78.342 29.2969 76.6927 29.2969C75.0434 29.2969 73.6328 28.7109 72.4609 27.5391C71.2891 26.3672 70.7031 24.9566 70.7031 23.3073C70.7031 21.658 71.2891 20.2474 72.4609 19.0755C73.6328 17.9036 75.0434 17.3177 76.6927 17.3177C78.342 17.3177 79.7526 17.9036 80.9245 19.0755C82.0964 20.2474 82.6823 21.658 82.6823 23.3073ZM50 8.98438C49.6962 8.98438 48.036 8.97352 45.0195 8.95182C42.003 8.93012 39.7135 8.93012 38.151 8.95182C36.5885 8.97352 34.4944 9.03863 31.8685 9.14713C29.2426 9.25564 27.0074 9.47266 25.1628 9.79818C23.3181 10.1237 21.7665 10.5252 20.5078 11.0026C18.3377 11.8707 16.428 13.1293 14.7786 14.7786C13.1293 16.428 11.8707 18.3377 11.0026 20.5078C10.5252 21.7665 10.1237 23.3181 9.79818 25.1628C9.47266 27.0074 9.25564 29.2426 9.14713 31.8685C9.03863 34.4944 8.97352 36.5885 8.95182 38.151C8.93012 39.7135 8.93012 42.003 8.95182 45.0195C8.97352 48.036 8.98438 49.6962 8.98438 50C8.98438 50.3038 8.97352 51.964 8.95182 54.9805C8.93012 57.997 8.93012 60.2865 8.95182 61.849C8.97352 63.4115 9.03863 65.5056 9.14713 68.1315C9.25564 70.7574 9.47266 72.9926 9.79818 74.8372C10.1237 76.6819 10.5252 78.2335 11.0026 79.4922C11.8707 81.6623 13.1293 83.572 14.7786 85.2214C16.428 86.8707 18.3377 88.1293 20.5078 88.9974C21.7665 89.4748 23.3181 89.8763 25.1628 90.2018C27.0074 90.5273 29.2426 90.7444 31.8685 90.8529C34.4944 90.9614 36.5885 91.0265 38.151 91.0482C39.7135 91.0699 42.003 91.0699 45.0195 91.0482C48.036 91.0265 49.6962 91.0156 50 91.0156C50.3038 91.0156 51.964 91.0265 54.9805 91.0482C57.997 91.0699 60.2865 91.0699 61.849 91.0482C63.4115 91.0265 65.5056 90.9614 68.1315 90.8529C70.7574 90.7444 72.9926 90.5273 74.8372 90.2018C76.6819 89.8763 78.2335 89.4748 79.4922 88.9974C81.6623 88.1293 83.572 86.8707 85.2214 85.2214C86.8707 83.572 88.1293 81.6623 88.9974 79.4922C89.4748 78.2335 89.8763 76.6819 90.2018 74.8372C90.5273 72.9926 90.7444 70.7574 90.8529 68.1315C90.9614 65.5056 91.0265 63.4115 91.0482 61.849C91.0699 60.2865 91.0699 57.997 91.0482 54.9805C91.0265 51.964 91.0156 50.3038 91.0156 50C91.0156 49.6962 91.0265 48.036 91.0482 45.0195C91.0699 42.003 91.0699 39.7135 91.0482 38.151C91.0265 36.5885 90.9614 34.4944 90.8529 31.8685C90.7444 29.2426 90.5273 27.0074 90.2018 25.1628C89.8763 23.3181 89.4748 21.7665 88.9974 20.5078C88.1293 18.3377 86.8707 16.428 85.2214 14.7786C83.572 13.1293 81.6623 11.8707 79.4922 11.0026C78.2335 10.5252 76.6819 10.1237 74.8372 9.79818C72.9926 9.47266 70.7574 9.25564 68.1315 9.14713C65.5056 9.03863 63.4115 8.97352 61.849 8.95182C60.2865 8.93012 57.997 8.93012 54.9805 8.95182C51.964 8.97352 50.3038 8.98438 50 8.98438ZM100 50C100 59.9392 99.8915 66.8186 99.6745 70.638C99.2404 79.6658 96.5495 86.6536 91.6016 91.6016C86.6536 96.5495 79.6658 99.2404 70.638 99.6745C66.8186 99.8915 59.9392 100 50 100C40.0608 100 33.1814 99.8915 29.362 99.6745C20.3342 99.2404 13.3464 96.5495 8.39844 91.6016C3.45052 86.6536 0.759549 79.6658 0.325521 70.638C0.108507 66.8186 0 59.9392 0 50C0 40.0608 0.108507 33.1814 0.325521 29.362C0.759549 20.3342 3.45052 13.3464 8.39844 8.39844C13.3464 3.45052 20.3342 0.759549 29.362 0.325521C33.1814 0.108507 40.0608 0 50 0C59.9392 0 66.8186 0.108507 70.638 0.325521C79.6658 0.759549 86.6536 3.45052 91.6016 8.39844C96.5495 13.3464 99.2404 20.3342 99.6745 29.362C99.8915 33.1814 100 40.0608 100 50Z" fill="white"/>
</svg>
