<svg xmlns="http://www.w3.org/2000/svg" viewBox="0 0 104.22 46.4"><defs><style>.cls-1{fill:#fff;}</style></defs><title>white wink</title><g id="Layer_2" data-name="Layer 2"><g id="Layer_1-2" data-name="Layer 1"><path class="cls-1" d="M102.33,32.73a21.93,21.93,0,0,1-12.75,12,27.39,27.39,0,0,1-18.78,0,21.93,21.93,0,0,1-12.75-12,23.33,23.33,0,0,1-1.89-9.53,23.36,23.36,0,0,1,1.89-9.53,22.37,22.37,0,0,1,5.11-7.32A22.5,22.5,0,0,1,70.8,1.66a27.39,27.39,0,0,1,18.78,0,22.5,22.5,0,0,1,7.64,4.69,22.37,22.37,0,0,1,5.11,7.32,23.36,23.36,0,0,1,1.89,9.53A23.33,23.33,0,0,1,102.33,32.73Zm-10-14.5A12.68,12.68,0,0,0,89.72,14a12.68,12.68,0,0,0-9.53-4.05,12.73,12.73,0,0,0-5.43,1.11A12.86,12.86,0,0,0,70.66,14a12.52,12.52,0,0,0-2.58,4.24,14.63,14.63,0,0,0,0,9.94,12.52,12.52,0,0,0,2.58,4.24A12.91,12.91,0,0,0,92.3,28.17a14.63,14.63,0,0,0,0-9.94Z"/><path class="cls-1" d="M11.05,23.2a14.45,14.45,0,0,1,.87-5A12.68,12.68,0,0,1,14.5,14,12.68,12.68,0,0,1,24,9.94a12.73,12.73,0,0,1,5.43,1.11A12.86,12.86,0,0,1,33.56,14a12.52,12.52,0,0,1,2.58,4.24,14.45,14.45,0,0,1,.87,5H48.06a23.36,23.36,0,0,0-1.89-9.53,22.37,22.37,0,0,0-5.11-7.32,22.5,22.5,0,0,0-7.64-4.69A26.44,26.44,0,0,0,24,0a26.44,26.44,0,0,0-9.39,1.66A22.5,22.5,0,0,0,7,6.35a22.37,22.37,0,0,0-5.11,7.32A23.36,23.36,0,0,0,0,23.2Z"/></g></g></svg>