<?xml version="1.0" encoding="utf-8"?>
<!-- Generator: Adobe Illustrator 25.4.1, SVG Export Plug-In . SVG Version: 6.00 Build 0)  -->
<svg version="1.1" id="Layer_1" xmlns="http://www.w3.org/2000/svg" xmlns:xlink="http://www.w3.org/1999/xlink" x="0px" y="0px"
	 viewBox="0 0 327.52 148.29" style="enable-background:new 0 0 327.52 148.29;" xml:space="preserve">
<style type="text/css">
	.st0{fill:#F0562E;}
	.st1{clip-path:url(#SVGID_00000009552222082992800180000005282334094455090333_);}
	.st2{clip-path:url(#SVGID_00000075127547725660677930000004595107239070496678_);fill:#93A2F8;}
	.st3{clip-path:url(#SVGID_00000152245367482905916690000011333579451095006628_);}
	.st4{clip-path:url(#SVGID_00000057848508121763845890000008069891144263748249_);fill:#909FFF;}
	.st5{clip-path:url(#SVGID_00000161593991348106254780000004381054196171197570_);}
	.st6{clip-path:url(#SVGID_00000124840079868617248540000006300446903407810452_);fill:#D5E4FF;}
	.st7{clip-path:url(#SVGID_00000105397989354512630690000008491807587431447735_);}
	.st8{clip-path:url(#SVGID_00000011716383760962674430000000075694229202985623_);fill:#D5E4FF;}
	.st9{clip-path:url(#SVGID_00000160905759171979220370000018168793984056795799_);}
	.st10{clip-path:url(#SVGID_00000144329352670251212050000017117075245236823173_);fill:#D1E3FF;}
	.st11{clip-path:url(#SVGID_00000075863936913039296430000002436966367508318622_);}
	.st12{clip-path:url(#SVGID_00000119104812049714312430000013790350822019840670_);fill:#FCAFFF;}
	.st13{clip-path:url(#SVGID_00000170966271956513304740000003082173289727049603_);}
	.st14{clip-path:url(#SVGID_00000147220248355303298600000011190967464092554883_);fill:#EC4A17;}
	.st15{fill:#F2B5FA;}
	.st16{fill:#93A2F8;}
	.st17{fill:#D8DC72;}
	.st18{fill:#D5E4FF;}
	.st19{fill:#223355;}
	.st20{fill:#C8802F;}
	.st21{fill:#F6BC3A;}
	.st22{fill:#FCAFFF;}
	.st23{fill:#679F6F;}
	.st24{clip-path:url(#SVGID_00000160171006494688203260000005583033527622633883_);}
	.st25{clip-path:url(#SVGID_00000089557989171738222720000014174369952736131496_);}
	.st26{clip-path:url(#SVGID_00000148633618961657562370000008370836886443504809_);}
</style>
<g>
	<path class="st0" d="M36.02,61.85c-2.68-3.75-6.28-5.63-10.8-5.63c-1.84,0-3.64,0.46-5.4,1.38c-1.76,0.92-2.64,2.41-2.64,4.48
		c0,1.69,0.73,2.91,2.18,3.68c1.45,0.77,3.29,1.42,5.51,1.95c2.22,0.54,4.61,1.09,7.18,1.67c2.56,0.57,4.96,1.46,7.18,2.64
		c2.22,1.19,4.06,2.81,5.51,4.88c1.45,2.07,2.18,4.9,2.18,8.5c0,3.29-0.71,6.07-2.13,8.33c-1.42,2.26-3.26,4.08-5.51,5.46
		c-2.26,1.38-4.81,2.38-7.64,2.99c-2.83,0.61-5.67,0.92-8.5,0.92c-4.29,0-8.23-0.61-11.83-1.84c-3.6-1.22-6.82-3.45-9.65-6.66
		l9.19-8.62c1.76,1.99,3.66,3.62,5.69,4.88c2.03,1.26,4.5,1.9,7.41,1.9c0.99,0,2.03-0.12,3.1-0.34c1.07-0.23,2.07-0.61,2.99-1.15
		c0.92-0.53,1.67-1.21,2.24-2.01c0.57-0.8,0.86-1.74,0.86-2.81c0-1.91-0.73-3.33-2.18-4.25c-1.46-0.92-3.29-1.67-5.51-2.24
		c-2.22-0.57-4.61-1.11-7.18-1.61c-2.57-0.5-4.96-1.3-7.18-2.41c-2.22-1.11-4.06-2.66-5.51-4.65C4.12,69.28,3.4,66.53,3.4,63
		c0-3.06,0.63-5.72,1.9-7.98c1.26-2.26,2.93-4.12,5-5.57c2.07-1.45,4.44-2.53,7.12-3.22c2.68-0.69,5.4-1.03,8.16-1.03
		c3.68,0,7.31,0.63,10.91,1.9c3.6,1.26,6.51,3.43,8.73,6.49L36.02,61.85z"/>
	<path class="st0" d="M54.86,74.15c0-4.37,0.78-8.33,2.35-11.89c1.57-3.56,3.69-6.61,6.38-9.13c2.68-2.53,5.86-4.48,9.53-5.86
		c3.68-1.38,7.58-2.07,11.72-2.07c4.14,0,8.04,0.69,11.72,2.07c3.68,1.38,6.85,3.33,9.53,5.86c2.68,2.53,4.8,5.57,6.38,9.13
		c1.57,3.56,2.35,7.52,2.35,11.89s-0.79,8.33-2.35,11.89c-1.57,3.56-3.7,6.61-6.38,9.13c-2.68,2.53-5.86,4.48-9.53,5.86
		c-3.68,1.38-7.58,2.07-11.72,2.07c-4.14,0-8.04-0.69-11.72-2.07c-3.68-1.38-6.85-3.33-9.53-5.86c-2.68-2.53-4.81-5.57-6.38-9.13
		C55.65,82.47,54.86,78.51,54.86,74.15z M68.65,74.15c0,2.14,0.36,4.21,1.09,6.2c0.73,1.99,1.8,3.75,3.22,5.28
		c1.42,1.53,3.12,2.76,5.11,3.68c1.99,0.92,4.25,1.38,6.78,1.38s4.79-0.46,6.78-1.38c1.99-0.92,3.69-2.14,5.11-3.68
		c1.42-1.53,2.49-3.29,3.22-5.28c0.73-1.99,1.09-4.06,1.09-6.2c0-2.14-0.36-4.21-1.09-6.2c-0.73-1.99-1.8-3.75-3.22-5.29
		c-1.42-1.53-3.12-2.76-5.11-3.68c-1.99-0.92-4.25-1.38-6.78-1.38s-4.79,0.46-6.78,1.38c-1.99,0.92-3.7,2.15-5.11,3.68
		c-1.42,1.53-2.49,3.29-3.22,5.29C69.01,69.93,68.65,72,68.65,74.15z"/>
	<path class="st0" d="M124.93,74.15c0-4.37,0.78-8.33,2.35-11.89c1.57-3.56,3.69-6.61,6.38-9.13c2.68-2.53,5.86-4.48,9.53-5.86
		c3.68-1.38,7.58-2.07,11.72-2.07c4.14,0,8.04,0.69,11.72,2.07c3.68,1.38,6.85,3.33,9.53,5.86c2.68,2.53,4.81,5.57,6.38,9.13
		c1.57,3.56,2.35,7.52,2.35,11.89s-0.79,8.33-2.35,11.89c-1.57,3.56-3.7,6.61-6.38,9.13c-2.68,2.53-5.86,4.48-9.53,5.86
		c-3.68,1.38-7.58,2.07-11.72,2.07c-4.14,0-8.04-0.69-11.72-2.07c-3.68-1.38-6.85-3.33-9.53-5.86c-2.68-2.53-4.81-5.57-6.38-9.13
		C125.72,82.47,124.93,78.51,124.93,74.15z M138.72,74.15c0,2.14,0.36,4.21,1.09,6.2c0.73,1.99,1.8,3.75,3.22,5.28
		c1.42,1.53,3.12,2.76,5.11,3.68c1.99,0.92,4.25,1.38,6.78,1.38s4.79-0.46,6.78-1.38c1.99-0.92,3.69-2.14,5.11-3.68
		c1.42-1.53,2.49-3.29,3.22-5.28c0.73-1.99,1.09-4.06,1.09-6.2c0-2.14-0.36-4.21-1.09-6.2c-0.73-1.99-1.8-3.75-3.22-5.29
		c-1.42-1.53-3.12-2.76-5.11-3.68c-1.99-0.92-4.25-1.38-6.78-1.38s-4.79,0.46-6.78,1.38c-1.99,0.92-3.7,2.15-5.11,3.68
		c-1.42,1.53-2.49,3.29-3.22,5.29C139.08,69.93,138.72,72,138.72,74.15z"/>
	<path class="st0" d="M197.76,46.58h13.1v8.85h0.23c1.3-2.76,3.29-5.15,5.97-7.18c2.68-2.03,6.32-3.04,10.91-3.04
		c3.68,0,6.79,0.61,9.36,1.84c2.56,1.23,4.65,2.83,6.26,4.83c1.61,1.99,2.76,4.29,3.45,6.89c0.69,2.6,1.03,5.32,1.03,8.16v34.81
		h-13.79V73.8c0-1.53-0.08-3.23-0.23-5.11c-0.15-1.88-0.56-3.64-1.21-5.28c-0.65-1.65-1.67-3.02-3.04-4.14
		c-1.38-1.11-3.26-1.67-5.63-1.67c-2.3,0-4.23,0.38-5.8,1.15c-1.57,0.77-2.87,1.8-3.91,3.1c-1.03,1.3-1.78,2.8-2.24,4.48
		c-0.46,1.69-0.69,3.45-0.69,5.28v30.1h-13.79V46.58z"/>
	<path class="st0" d="M298.16,94.13h-0.34c-1.99,3.14-4.52,5.42-7.58,6.83c-3.06,1.42-6.43,2.13-10.11,2.13
		c-2.53,0-5-0.34-7.41-1.03c-2.41-0.69-4.56-1.72-6.43-3.1c-1.88-1.38-3.39-3.1-4.54-5.17c-1.15-2.07-1.72-4.48-1.72-7.24
		c0-2.99,0.54-5.53,1.61-7.64c1.07-2.11,2.51-3.87,4.31-5.29c1.8-1.42,3.89-2.54,6.26-3.39c2.37-0.84,4.84-1.47,7.41-1.9
		c2.57-0.42,5.15-0.69,7.75-0.8c2.6-0.12,5.05-0.17,7.35-0.17h3.45v-1.49c0-3.45-1.19-6.03-3.56-7.75c-2.37-1.72-5.4-2.58-9.08-2.58
		c-2.91,0-5.63,0.52-8.16,1.55c-2.53,1.03-4.71,2.43-6.55,4.19l-7.24-7.24c3.06-3.14,6.64-5.4,10.74-6.78
		c4.1-1.38,8.33-2.07,12.69-2.07c3.91,0,7.2,0.44,9.88,1.32c2.68,0.88,4.9,2.01,6.66,3.39c1.76,1.38,3.12,2.97,4.08,4.77
		c0.96,1.8,1.65,3.62,2.07,5.46c0.42,1.84,0.67,3.62,0.75,5.34c0.08,1.72,0.11,3.24,0.11,4.54v31.71h-12.41V94.13z M297.36,77.02
		h-2.87c-1.92,0-4.06,0.08-6.43,0.23c-2.37,0.15-4.61,0.52-6.72,1.09c-2.11,0.57-3.89,1.42-5.34,2.53
		c-1.46,1.11-2.18,2.66-2.18,4.65c0,1.3,0.29,2.39,0.86,3.27c0.57,0.88,1.32,1.63,2.24,2.24c0.92,0.61,1.95,1.05,3.1,1.32
		c1.15,0.27,2.3,0.4,3.45,0.4c4.75,0,8.25-1.13,10.51-3.39c2.26-2.26,3.39-5.34,3.39-9.25V77.02z"/>
	<path class="st0" d="M318.88,98.58h-1.26v-0.67h3.26v0.67h-1.27v3.46h-0.73V98.58z"/>
	<path class="st0" d="M321.4,97.92h1.12l1.1,2.89l1.11-2.89h1.11v4.13h-0.7v-3.43h-0.01l-1.25,3.43h-0.51l-1.25-3.43h-0.01v3.43
		h-0.7V97.92z"/>
</g>
</svg>
