<?xml version="1.0" encoding="UTF-8" standalone="no"?>
<svg
   data-v-0dd9719b=""
   version="1.0"
   width="100%"
   height="100%"
   viewBox="0 0 340.000000 250.000000"
   preserveAspectRatio="xMidYMid meet"
   color-interpolation-filters="sRGB"
   style="margin: auto;"
   id="svg27586"
   sodipodi:docname="63407c735976870796768b0a_white wink - Copy.svg"
   inkscape:version="1.2.2 (732a01da63, 2022-12-09)"
   xmlns:inkscape="http://www.inkscape.org/namespaces/inkscape"
   xmlns:sodipodi="http://sodipodi.sourceforge.net/DTD/sodipodi-0.dtd"
   xmlns:xlink="http://www.w3.org/1999/xlink"
   xmlns="http://www.w3.org/2000/svg"
   xmlns:svg="http://www.w3.org/2000/svg">
  <sodipodi:namedview
     id="namedview27588"
     pagecolor="#ffffff"
     bordercolor="#000000"
     borderopacity="0.25"
     inkscape:showpageshadow="2"
     inkscape:pageopacity="0.0"
     inkscape:pagecheckerboard="0"
     inkscape:deskcolor="#d1d1d1"
     showgrid="false"
     inkscape:zoom="1.2190521"
     inkscape:cx="175.13608"
     inkscape:cy="-29.531142"
     inkscape:window-width="1920"
     inkscape:window-height="1017"
     inkscape:window-x="-8"
     inkscape:window-y="1072"
     inkscape:window-maximized="1"
     inkscape:current-layer="g26821" />
  <rect
     data-v-0dd9719b=""
     x="0"
     y="0"
     width="100%"
     height="100%"
     fill="url(#watermark)"
     fill-opacity="1"
     class="watermarklayer"
     id="rect27492" />
  <path
     d="M 45,1.157 A 43.843,43.843 0 1 0 88.843,45 43.893,43.893 0 0 0 45,1.157 Z m 0,82.205 A 38.362,38.362 0 1 1 83.362,45 38.405,38.405 0 0 1 45,83.362 Z M 48.957,32.07 v 34.295 a 2.741,2.741 0 0 1 -5.481,0 V 34.81 h -0.135 a 2.74,2.74 0 0 1 0,-5.48 h 2.875 a 2.74,2.74 0 0 1 2.741,2.74 z m 0.442,-8.435 v 0.343 a 2.741,2.741 0 0 1 -5.481,0 v -0.343 a 2.741,2.741 0 0 1 5.481,0 z"
     id="path27496"
     style="fill:#ffd5d5;filter:url(#colors1391511623)"
     transform="matrix(2.8510824,0,0,2.8510824,41.70127,-3.2987026)"
     mask="url(#mask28043)" />
  <g
     data-gra="path-name"
     fill-rule=""
     class="tp-name iconsvg-namesvg"
     fill="url(#bd599133-8e86-45a6-8e1c-a17ccf0b629f)"
     id="g27525"
     style="fill:url(#linearGradient27713)"
     transform="translate(80.233608,182.8428)">
    <g
       id="g27523"
       style="fill:url(#linearGradient27711)">
      <g
         id="g27521"
         style="fill:url(#linearGradient27709)">
        <g
           id="g26821"
           transform="matrix(0.47278974,0,0,0.47278974,89.105332,-230.46459)"
           style="font-size:82.6667px;font-family:Verdana;-inkscape-font-specification:'Verdana, Normal';fill:#f0562e;stroke-width:1.33333;stroke-linejoin:round;stop-color:#000000">
          <g
             id="g30153"
             transform="matrix(2.5,0,0,2.5,-19.548386,-510.28219)">
            <circle
               style="fill:url(#linearGradient28629);fill-opacity:1;stroke-width:1.05478;stroke-linejoin:round;stroke-dasharray:none;stop-color:#000000"
               id="path28607"
               cx="93.066666"
               cy="-64.913399"
               r="40"
               transform="matrix(2.1151051,0,0,2.1151051,-188.46714,487.45683)" />
            <g
               id="g30146"
               style="fill:#ffffff"
               transform="translate(-44.264105,210.36528)">
              <path
                 d="m 26.728676,112.93024 v 55.09768 H 10.340648 v -55.09768 z"
                 style="font-family:'Bauhaus 93';-inkscape-font-specification:'Bauhaus 93, Normal';fill:#ffffff"
                 id="path26799" />
              <path
                 d="m 36.618004,168.02792 v -39.71876 q 0,-7.38673 4.48047,-12.06902 4.480471,-4.68229 11.625005,-4.68229 8.476567,0 13.037766,7.79037 2.785158,-4.19792 5.973961,-5.97397 3.188804,-1.8164 7.871097,-1.8164 7.427087,0 11.382818,4.68229 3.955731,4.68229 3.955731,13.48178 v 38.306 H 78.556824 v -35.84376 q 0,-2.66407 -0.444011,-3.51172 -0.403646,-0.88802 -1.695313,-0.88802 -2.421876,0 -2.421876,4.11719 v 36.12631 H 57.607596 v -35.84376 q 0,-2.6237 -0.444011,-3.51172 -0.44401,-0.88802 -1.735677,-0.88802 -2.421876,0 -2.421876,4.39974 v 35.84376 z"
                 style="font-family:'Bauhaus 93';-inkscape-font-specification:'Bauhaus 93, Normal';fill:#ffffff"
                 id="path26801" />
            </g>
          </g>
        </g>
      </g>
      <!---->
      <!---->
      <!---->
      <!---->
      <!---->
      <!---->
      <!---->
    </g>
  </g>
  <defs
     v-gra="od"
     id="defs27541">
    <linearGradient
       inkscape:collect="always"
       id="linearGradient28627">
      <stop
         style="stop-color:#2cf1ae;stop-opacity:1;"
         offset="0"
         id="stop28623" />
      <stop
         style="stop-color:#1eaafd;stop-opacity:1;"
         offset="0.5"
         id="stop28631" />
      <stop
         style="stop-color:#dd3ffc;stop-opacity:1;"
         offset="1"
         id="stop28625" />
    </linearGradient>
    <linearGradient
       x1="0"
       y1="1"
       x2="0"
       y2="0"
       id="bd599133-8e86-45a6-8e1c-a17ccf0b629f">
      <stop
         offset="0%"
         stop-color="#2cf1ae"
         id="stop27531" />
      <stop
         offset="50%"
         stop-color="#1eaafd"
         id="stop27533" />
      <stop
         offset="100%"
         stop-color="#dd3ffc"
         id="stop27535" />
    </linearGradient>
    <filter
       id="42443b3f1de60f6b6fd3b6a9844b4764"
       filterUnits="objectBoundingBox">
      <feColorMatrix
         type="matrix"
         values="0 0 0 0 0.99609375  0 0 0 0 0.99609375  0 0 0 0 0.99609375  0 0 0 1 0"
         id="feColorMatrix27538" />
    </filter>
    <linearGradient
       inkscape:collect="always"
       xlink:href="#bd599133-8e86-45a6-8e1c-a17ccf0b629f"
       id="linearGradient27709"
       x1="3.9287731e-08"
       y1="88.649011"
       x2="3.9287731e-08"
       y2="-1.4815735e-06"
       gradientTransform="scale(1.941928,0.51495215)"
       gradientUnits="userSpaceOnUse" />
    <linearGradient
       inkscape:collect="always"
       xlink:href="#bd599133-8e86-45a6-8e1c-a17ccf0b629f"
       id="linearGradient27711"
       x1="3.9287731e-08"
       y1="88.649011"
       x2="3.9287731e-08"
       y2="-1.4815735e-06"
       gradientTransform="scale(1.941928,0.51495215)"
       gradientUnits="userSpaceOnUse" />
    <linearGradient
       inkscape:collect="always"
       xlink:href="#bd599133-8e86-45a6-8e1c-a17ccf0b629f"
       id="linearGradient27713"
       x1="3.9287731e-08"
       y1="88.649011"
       x2="3.9287731e-08"
       y2="-1.4815735e-06"
       gradientTransform="scale(1.941928,0.51495215)"
       gradientUnits="userSpaceOnUse" />
    <mask
       maskUnits="userSpaceOnUse"
       id="mask27775">
      <g
         id="g27803"
         transform="translate(-134,-62.675003)">
        <g
           class="iconsvg-imagesvg"
           filter="url(#02465ce7-bb3a-4d5a-9d2a-7857aea1212c)"
           id="g27801"
           transform="translate(140,68.675003)">
          <g
             id="g27799">
            <rect
               fill="#2cf1ae"
               fill-opacity="0"
               stroke-width="2"
               x="0"
               y="0"
               width="60"
               height="60"
               class="image-rect"
               id="rect27777" />
            <svg
               x="0"
               y="0"
               width="60"
               height="60"
               filtersec="colorsf9798745543"
               class="image-svg-svg primary"
               style="overflow:visible"
               version="1.1"
               id="svg27783">
              <svg
                 data-name="Layer 1"
                 viewBox="1.1570096 1.1570001 87.685997 87.685997"
                 x="0px"
                 y="0px"
                 version="1.1"
                 id="svg27781"
                 width="100%"
                 height="100%">
                <path
                   d="M 45,1.157 A 43.843,43.843 0 1 0 88.843,45 43.893,43.893 0 0 0 45,1.157 Z m 0,82.205 A 38.362,38.362 0 1 1 83.362,45 38.405,38.405 0 0 1 45,83.362 Z M 48.957,32.07 v 34.295 a 2.741,2.741 0 0 1 -5.481,0 V 34.81 h -0.135 a 2.74,2.74 0 0 1 0,-5.48 h 2.875 a 2.74,2.74 0 0 1 2.741,2.74 z m 0.442,-8.435 v 0.343 a 2.741,2.741 0 0 1 -5.481,0 v -0.343 a 2.741,2.741 0 0 1 5.481,0 z"
                   id="path27779" />
              </svg>
            </svg>
            <defs
               id="defs27797">
              <filter
                 id="filter27787">
                <feColorMatrix
                   type="matrix"
                   values="0 0 0 0 0.171875  0 0 0 0 0.94140625  0 0 0 0 0.6796875  0 0 0 1 0"
                   class="icon-fecolormatrix"
                   id="feColorMatrix27785" />
              </filter>
              <filter
                 id="filter27791">
                <feColorMatrix
                   type="matrix"
                   values="0 0 0 0 0.99609375  0 0 0 0 0.99609375  0 0 0 0 0.99609375  0 0 0 1 0"
                   class="icon-fecolormatrix"
                   id="feColorMatrix27789" />
              </filter>
              <filter
                 id="filter27795">
                <feColorMatrix
                   type="matrix"
                   values="0 0 0 0 0  0 0 0 0 0  0 0 0 0 0  0 0 0 1 0"
                   class="icon-fecolormatrix"
                   id="feColorMatrix27793" />
              </filter>
            </defs>
          </g>
        </g>
      </g>
    </mask>
    <defs
       id="defs27511">
      <filter
         id="colors1391511623"
         x="0"
         y="0"
         width="1"
         height="1">
        <feColorMatrix
           type="matrix"
           values="0 0 0 0 0.171875  0 0 0 0 0.94140625  0 0 0 0 0.6796875  0 0 0 1 0"
           class="icon-fecolormatrix"
           id="feColorMatrix27502" />
      </filter>
      <filter
         id="colorsf9798745543">
        <feColorMatrix
           type="matrix"
           values="0 0 0 0 0.99609375  0 0 0 0 0.99609375  0 0 0 0 0.99609375  0 0 0 1 0"
           class="icon-fecolormatrix"
           id="feColorMatrix27505" />
      </filter>
      <filter
         id="colorsb2437461498">
        <feColorMatrix
           type="matrix"
           values="0 0 0 0 0  0 0 0 0 0  0 0 0 0 0  0 0 0 1 0"
           class="icon-fecolormatrix"
           id="feColorMatrix27508" />
      </filter>
    </defs>
    <mask
       maskUnits="userSpaceOnUse"
       id="mask27908">
      <g
         id="g27938"
         transform="translate(-140,-68.675003)">
        <g
           id="g27936">
          <g
             class="iconsvg-imagesvg"
             filter="url(#02465ce7-bb3a-4d5a-9d2a-7857aea1212c)"
             id="g27934"
             transform="translate(140,68.675003)">
            <g
               id="g27932">
              <rect
                 fill="#2cf1ae"
                 fill-opacity="0"
                 stroke-width="2"
                 x="0"
                 y="0"
                 width="60"
                 height="60"
                 class="image-rect"
                 id="rect27910" />
              <svg
                 x="0"
                 y="0"
                 width="60"
                 height="60"
                 filtersec="colorsf9798745543"
                 class="image-svg-svg primary"
                 style="overflow:visible"
                 version="1.1"
                 id="svg27916">
                <svg
                   data-name="Layer 1"
                   viewBox="1.1570096 1.1570001 87.685997 87.685997"
                   x="0px"
                   y="0px"
                   version="1.1"
                   id="svg27914"
                   width="100%"
                   height="100%">
                  <path
                     d="M 45,1.157 A 43.843,43.843 0 1 0 88.843,45 43.893,43.893 0 0 0 45,1.157 Z m 0,82.205 A 38.362,38.362 0 1 1 83.362,45 38.405,38.405 0 0 1 45,83.362 Z M 48.957,32.07 v 34.295 a 2.741,2.741 0 0 1 -5.481,0 V 34.81 h -0.135 a 2.74,2.74 0 0 1 0,-5.48 h 2.875 a 2.74,2.74 0 0 1 2.741,2.74 z m 0.442,-8.435 v 0.343 a 2.741,2.741 0 0 1 -5.481,0 v -0.343 a 2.741,2.741 0 0 1 5.481,0 z"
                     id="path27912" />
                </svg>
              </svg>
              <defs
                 id="defs27930">
                <filter
                   id="filter27920">
                  <feColorMatrix
                     type="matrix"
                     values="0 0 0 0 0.171875  0 0 0 0 0.94140625  0 0 0 0 0.6796875  0 0 0 1 0"
                     class="icon-fecolormatrix"
                     id="feColorMatrix27918" />
                </filter>
                <filter
                   id="filter27924">
                  <feColorMatrix
                     type="matrix"
                     values="0 0 0 0 0.99609375  0 0 0 0 0.99609375  0 0 0 0 0.99609375  0 0 0 1 0"
                     class="icon-fecolormatrix"
                     id="feColorMatrix27922" />
                </filter>
                <filter
                   id="filter27928">
                  <feColorMatrix
                     type="matrix"
                     values="0 0 0 0 0  0 0 0 0 0  0 0 0 0 0  0 0 0 1 0"
                     class="icon-fecolormatrix"
                     id="feColorMatrix27926" />
                </filter>
              </defs>
            </g>
          </g>
        </g>
      </g>
    </mask>
    <mask
       maskUnits="userSpaceOnUse"
       id="mask28043">
      <g
         id="g28077"
         style="stroke-width:2.85108"
         transform="matrix(0.35074398,0,0,0.35074398,-14.62647,1.1570001)">
        <g
           id="g28075"
           style="stroke-width:8.12866"
           transform="matrix(0.35074399,0,0,0.35074399,-14.62647,1.1570001)">
          <g
             id="g28073"
             style="stroke-width:8.12866">
            <g
               id="g28071"
               style="stroke-width:8.12866">
              <g
                 class="iconsvg-imagesvg"
                 filter="url(#02465ce7-bb3a-4d5a-9d2a-7857aea1212c)"
                 id="g28069"
                 transform="translate(140,68.675003)"
                 style="stroke-width:23.1755">
                <g
                   id="g28067"
                   style="stroke-width:8.12866">
                  <rect
                     fill="#2cf1ae"
                     fill-opacity="0"
                     stroke-width="16.2573"
                     x="0"
                     y="0"
                     width="60"
                     height="60"
                     class="image-rect"
                     id="rect28045" />
                  <svg
                     x="0"
                     y="0"
                     width="60"
                     height="60"
                     filtersec="colorsf9798745543"
                     class="image-svg-svg primary"
                     style="overflow:visible;stroke-width:8.12866"
                     version="1.1"
                     id="svg28051">
                    <svg
                       data-name="Layer 1"
                       viewBox="1.1570096 1.1570001 87.685997 87.685997"
                       x="0px"
                       y="0px"
                       version="1.1"
                       id="svg28049"
                       width="100%"
                       height="100%"
                       style="stroke-width:8.12866">
                      <path
                         d="M 45,1.157 A 43.843,43.843 0 1 0 88.843,45 43.893,43.893 0 0 0 45,1.157 Z m 0,82.205 A 38.362,38.362 0 1 1 83.362,45 38.405,38.405 0 0 1 45,83.362 Z M 48.957,32.07 v 34.295 a 2.741,2.741 0 0 1 -5.481,0 V 34.81 h -0.135 a 2.74,2.74 0 0 1 0,-5.48 h 2.875 a 2.74,2.74 0 0 1 2.741,2.74 z m 0.442,-8.435 v 0.343 a 2.741,2.741 0 0 1 -5.481,0 v -0.343 a 2.741,2.741 0 0 1 5.481,0 z"
                         id="path28047"
                         style="stroke-width:8.12866" />
                    </svg>
                  </svg>
                  <defs
                     id="defs28065">
                    <filter
                       id="filter28055">
                      <feColorMatrix
                         type="matrix"
                         values="0 0 0 0 0.171875  0 0 0 0 0.94140625  0 0 0 0 0.6796875  0 0 0 1 0"
                         class="icon-fecolormatrix"
                         id="feColorMatrix28053" />
                    </filter>
                    <filter
                       id="filter28059">
                      <feColorMatrix
                         type="matrix"
                         values="0 0 0 0 0.99609375  0 0 0 0 0.99609375  0 0 0 0 0.99609375  0 0 0 1 0"
                         class="icon-fecolormatrix"
                         id="feColorMatrix28057" />
                    </filter>
                    <filter
                       id="filter28063">
                      <feColorMatrix
                         type="matrix"
                         values="0 0 0 0 0  0 0 0 0 0  0 0 0 0 0  0 0 0 1 0"
                         class="icon-fecolormatrix"
                         id="feColorMatrix28061" />
                    </filter>
                  </defs>
                </g>
              </g>
            </g>
          </g>
        </g>
      </g>
    </mask>
    <linearGradient
       inkscape:collect="always"
       xlink:href="#linearGradient28627"
       id="linearGradient28629"
       x1="-111.40537"
       y1="7.0588474"
       x2="15.742599"
       y2="7.0588474"
       gradientUnits="userSpaceOnUse"
       gradientTransform="matrix(0.62918817,0,0,0.9951446,123.16162,-71.937964)" />
  </defs>
  <defs
     v-gra="id"
     id="defs27557">
    <filter
       id="02465ce7-bb3a-4d5a-9d2a-7857aea1212c"
       filterUnits="userSpaceOnUse">
      <feColorMatrix
         type="matrix"
         values="0 0 0 0 0.99609375  0 0 0 0 0.99609375  0 0 0 0 0.99609375  0 0 0 1 0"
         id="feColorMatrix27543" />
    </filter>
    <linearGradient
       x1="0"
       y1="72"
       x2="0"
       y2="0"
       id="c9YX3cjIL3ETL2S_rqZ7V"
       gradientUnits="userSpaceOnUse">
      <stop
         offset="0%"
         stop-color="#2cf1ae"
         id="stop27546" />
      <stop
         offset="50%"
         stop-color="#1eaafd"
         id="stop27548" />
      <stop
         offset="100%"
         stop-color="#dd3ffc"
         id="stop27550" />
    </linearGradient>
    <filter
       id="filter27555"
       filterUnits="objectBoundingBox">
      <feColorMatrix
         type="matrix"
         values="0 0 0 0 0.99609375  0 0 0 0 0.99609375  0 0 0 0 0.99609375  0 0 0 1 0"
         id="feColorMatrix27553" />
    </filter>
  </defs>
</svg>
