<?xml version="1.0" encoding="UTF-8" standalone="no"?>
<!-- Generator: Adobe Illustrator 25.4.1, SVG Export Plug-In . SVG Version: 6.00 Build 0)  -->

<svg
   version="1.1"
   id="Layer_1"
   x="0px"
   y="0px"
   viewBox="0 0 327.52 148.29"
   style="enable-background:new 0 0 327.52 148.29;"
   xml:space="preserve"
   sodipodi:docname="logo.svg"
   inkscape:version="1.2.2 (732a01da63, 2022-12-09)"
   xmlns:inkscape="http://www.inkscape.org/namespaces/inkscape"
   xmlns:sodipodi="http://sodipodi.sourceforge.net/DTD/sodipodi-0.dtd"
   xmlns:xlink="http://www.w3.org/1999/xlink"
   xmlns="http://www.w3.org/2000/svg"
   xmlns:svg="http://www.w3.org/2000/svg"><defs
   id="defs23368"><linearGradient
     inkscape:collect="always"
     id="linearGradient35164"><stop
       style="stop-color:#2cf1ae;stop-opacity:1;"
       offset="0"
       id="stop35160" /><stop
       style="stop-color:#1eaafd;stop-opacity:1;"
       offset="0.5"
       id="stop35168" /><stop
       style="stop-color:#dd3ffc;stop-opacity:1;"
       offset="1"
       id="stop35162" /></linearGradient><linearGradient
     id="linearGradient33162"
     inkscape:swatch="gradient"><stop
       style="stop-color:#677eeb;stop-opacity:1;"
       offset="0"
       id="stop33158" /><stop
       style="stop-color:#677eeb;stop-opacity:0;"
       offset="1"
       id="stop33160" /></linearGradient><linearGradient
     inkscape:collect="always"
     xlink:href="#linearGradient35164"
     id="linearGradient35166"
     x1="10.340648"
     y1="140.47908"
     x2="316.49183"
     y2="140.47908"
     gradientUnits="userSpaceOnUse" /></defs><sodipodi:namedview
   id="namedview23366"
   pagecolor="#ffffff"
   bordercolor="#000000"
   borderopacity="0.25"
   inkscape:showpageshadow="2"
   inkscape:pageopacity="0.0"
   inkscape:pagecheckerboard="0"
   inkscape:deskcolor="#d1d1d1"
   showgrid="false"
   inkscape:zoom="1.853322"
   inkscape:cx="172.12335"
   inkscape:cy="156.47578"
   inkscape:window-width="1920"
   inkscape:window-height="1017"
   inkscape:window-x="-8"
   inkscape:window-y="1072"
   inkscape:window-maximized="1"
   inkscape:current-layer="text23728-7-9-5" />
<style
   type="text/css"
   id="style23347">
	.st0{fill:#F0562E;}
	.st1{clip-path:url(#SVGID_00000009552222082992800180000005282334094455090333_);}
	.st2{clip-path:url(#SVGID_00000075127547725660677930000004595107239070496678_);fill:#93A2F8;}
	.st3{clip-path:url(#SVGID_00000152245367482905916690000011333579451095006628_);}
	.st4{clip-path:url(#SVGID_00000057848508121763845890000008069891144263748249_);fill:#909FFF;}
	.st5{clip-path:url(#SVGID_00000161593991348106254780000004381054196171197570_);}
	.st6{clip-path:url(#SVGID_00000124840079868617248540000006300446903407810452_);fill:#D5E4FF;}
	.st7{clip-path:url(#SVGID_00000105397989354512630690000008491807587431447735_);}
	.st8{clip-path:url(#SVGID_00000011716383760962674430000000075694229202985623_);fill:#D5E4FF;}
	.st9{clip-path:url(#SVGID_00000160905759171979220370000018168793984056795799_);}
	.st10{clip-path:url(#SVGID_00000144329352670251212050000017117075245236823173_);fill:#D1E3FF;}
	.st11{clip-path:url(#SVGID_00000075863936913039296430000002436966367508318622_);}
	.st12{clip-path:url(#SVGID_00000119104812049714312430000013790350822019840670_);fill:#FCAFFF;}
	.st13{clip-path:url(#SVGID_00000170966271956513304740000003082173289727049603_);}
	.st14{clip-path:url(#SVGID_00000147220248355303298600000011190967464092554883_);fill:#EC4A17;}
	.st15{fill:#F2B5FA;}
	.st16{fill:#93A2F8;}
	.st17{fill:#D8DC72;}
	.st18{fill:#D5E4FF;}
	.st19{fill:#223355;}
	.st20{fill:#C8802F;}
	.st21{fill:#F6BC3A;}
	.st22{fill:#FCAFFF;}
	.st23{fill:#679F6F;}
	.st24{clip-path:url(#SVGID_00000160171006494688203260000005583033527622633883_);}
	.st25{clip-path:url(#SVGID_00000089557989171738222720000014174369952736131496_);}
	.st26{clip-path:url(#SVGID_00000148633618961657562370000008370836886443504809_);}
</style>
<g
   id="g23363">
	
	
	
	
	
	
	
<text
   xml:space="preserve"
   style="font-size:85.3333px;font-family:Verdana;-inkscape-font-specification:'Verdana, Normal';fill:#f0562e;fill-opacity:1;stroke-width:1.33333;stroke-linejoin:round;stop-color:#000000"
   x="4.6987143"
   y="-7.2964358"
   id="text23728-7-9"><tspan
     sodipodi:role="line"
     id="tspan23726-9-6"
     x="4.6987143"
     y="-7.2964358"
     style="font-style:normal;font-variant:normal;font-weight:normal;font-stretch:normal;font-size:80px;font-family:'Bauhaus 93';-inkscape-font-specification:'Bauhaus 93, Normal';font-variant-ligatures:normal;font-variant-caps:normal;font-variant-numeric:normal;font-variant-east-asian:normal;fill:#f0562e;fill-opacity:1">IMAGIFY</tspan></text><g
   aria-label="IMAGIFY"
   id="text23728-7-9-5"
   style="font-size:82.6667px;font-family:Verdana;-inkscape-font-specification:'Verdana, Normal';fill:#f0562e;stroke-width:1.33333;stroke-linejoin:round;stop-color:#000000"><g
     id="g26821"
     transform="translate(0.34375551,-66.334088)"
     style="fill:url(#linearGradient35166);fill-opacity:1"><path
       d="m 26.728676,112.93024 v 55.09768 H 10.340648 v -55.09768 z"
       style="font-family:'Bauhaus 93';-inkscape-font-specification:'Bauhaus 93, Normal';fill:url(#linearGradient35166);fill-opacity:1"
       id="path26799" /><path
       d="m 36.618004,168.02792 v -39.71876 q 0,-7.38673 4.48047,-12.06902 4.480471,-4.68229 11.625005,-4.68229 8.476567,0 13.037766,7.79037 2.785158,-4.19792 5.973961,-5.97397 3.188804,-1.8164 7.871097,-1.8164 7.427087,0 11.382818,4.68229 3.955731,4.68229 3.955731,13.48178 v 38.306 H 78.556824 v -35.84376 q 0,-2.66407 -0.444011,-3.51172 -0.403646,-0.88802 -1.695313,-0.88802 -2.421876,0 -2.421876,4.11719 v 36.12631 H 57.607596 v -35.84376 q 0,-2.6237 -0.444011,-3.51172 -0.44401,-0.88802 -1.735677,-0.88802 -2.421876,0 -2.421876,4.39974 v 35.84376 z"
       style="font-family:'Bauhaus 93';-inkscape-font-specification:'Bauhaus 93, Normal';fill:url(#linearGradient35166);fill-opacity:1"
       id="path26801" /><path
       d="m 124.85502,140.37817 v 14.53126 h -4.72266 v 13.11849 h -16.38803 v -35.03647 q 0,-10.17188 5.52995,-15.78256 5.57031,-5.65104 15.6211,-5.65104 9.6875,0 14.32943,5.1263 4.64193,5.08594 4.64193,15.7422 v 35.60157 h -16.38803 v -34.51173 q 0,-3.22917 -0.76692,-4.48047 -0.76693,-1.2513 -2.7448,-1.2513 -3.83463,0 -3.83463,5.73177 v 6.86198 z"
       style="font-family:'Bauhaus 93';-inkscape-font-specification:'Bauhaus 93, Normal';fill:url(#linearGradient35166);fill-opacity:1"
       id="path26803" /><path
       d="m 177.12718,137.149 h 15.6211 q 5.04558,6.25652 5.04558,13.19923 0,8.07292 -5.9336,13.5625 -5.89323,5.48959 -14.53125,5.48959 -11.22136,0 -19.0521,-8.51693 -7.83073,-8.51693 -7.83073,-20.74741 0,-12.27083 7.95183,-20.42448 7.99219,-8.15365 19.94011,-8.15365 4.07683,0 9.04167,1.65495 v 16.38802 q -3.875,-1.8164 -7.0638,-1.8164 -5.77214,0 -9.44532,3.59245 -3.63281,3.59245 -3.63281,9.32422 0,5.85287 3.39062,9.28386 3.39063,3.43099 9.16277,3.43099 3.67318,0 3.67318,-2.13933 0,-1.61458 -2.42188,-1.61458 h -3.91537 z"
       style="font-family:'Bauhaus 93';-inkscape-font-specification:'Bauhaus 93, Normal';fill:url(#linearGradient35166);fill-opacity:1"
       id="path26805" /><path
       d="m 220.84203,112.93024 v 55.09768 h -16.38802 v -55.09768 z"
       style="font-family:'Bauhaus 93';-inkscape-font-specification:'Bauhaus 93, Normal';fill:url(#linearGradient35166);fill-opacity:1"
       id="path26807" /><path
       d="m 252.56862,138.88468 v 14.77345 h -5.44922 v 14.36979 h -16.38803 v -34.18881 q 0,-9.64714 5.9336,-15.94402 5.97396,-6.33724 15.01563,-6.33724 9.97006,0 16.67058,8.59766 l -13.44141,9.8086 q -1.13021,-3.14844 -3.9961,-3.14844 -3.79427,0 -3.79427,5.24739 v 6.82162 z"
       style="font-family:'Bauhaus 93';-inkscape-font-specification:'Bauhaus 93, Normal';fill:url(#linearGradient35166);fill-opacity:1"
       id="path26809" /><path
       d="m 316.49183,112.93024 -15.58074,24.50132 v 30.59636 h -16.38802 v -30.59636 l -15.70183,-24.50132 h 16.63021 l 7.10417,11.34246 7.62891,-11.34246 z"
       style="font-family:'Bauhaus 93';-inkscape-font-specification:'Bauhaus 93, Normal';fill:url(#linearGradient35166);fill-opacity:1"
       id="path26811" /></g></g></g>
</svg>
